<?xml version="1.0" encoding="UTF-8"?> <svg xmlns="http://www.w3.org/2000/svg" id="Слой_1" data-name="Слой 1" width="298.15" height="50.57" viewBox="0 0 298.15 50.57"><defs><style> .cls-1 { fill: #6d6a69; } .cls-2 { fill: none; stroke: #6d6a69; stroke-miterlimit: 10; stroke-width: 1.15px; } </style></defs><path class="cls-1" d="M298.88,43.57a10.62,10.62,0,0,0-2.13-.77V20.11H296c-.77.14-1.59.3-2.45.48a11.7,11.7,0,0,0-2.1.68v.84l2.45.26V42.8a10.85,10.85,0,0,0-2.13.77v.81h7.17Z" transform="translate(-0.79 -3.41)"></path><path class="cls-1" d="M288.07,42.48a6.51,6.51,0,0,0-.07-1.16,7.2,7.2,0,0,1,0-1.23c0-1.15,0-2.23.08-3.46s.08-2.43.08-3.72A10,10,0,0,0,288,31.1a4,4,0,0,0-.68-1.65,3.78,3.78,0,0,0-1.5-1.21,6.34,6.34,0,0,0-2.62-.47,12.62,12.62,0,0,0-3.35.43,10.49,10.49,0,0,0-2.72,1.15,11.7,11.7,0,0,0,.3,2c.17.69.35,1.36.57,2h.84l1.52-3.87a3.87,3.87,0,0,1,1.15-.28h1a2.74,2.74,0,0,1,1.57.43,2.78,2.78,0,0,1,.91,1.23,6.24,6.24,0,0,1,.34,1.91,16.07,16.07,0,0,1-.08,2.5c-1.5.09-2.82.2-4,.37a9.57,9.57,0,0,0-2.87.79,4.16,4.16,0,0,0-1.77,1.5,4.69,4.69,0,0,0-.6,2.43,4.21,4.21,0,0,0,1.25,3.14,4.47,4.47,0,0,0,3.21,1.15,5,5,0,0,0,1.84-.32,4.77,4.77,0,0,0,1.4-.85,4.13,4.13,0,0,0,1-1.15,4.46,4.46,0,0,0,.51-1.31h.16a13.51,13.51,0,0,0,.09,2,5,5,0,0,0,.39,1.62h.81a14.09,14.09,0,0,0,3.68-1.22v-.68ZM285.23,40a3.84,3.84,0,0,1-.36.8,5,5,0,0,1-.67.92,4,4,0,0,1-1,.77,2.8,2.8,0,0,1-1.42.32,2.46,2.46,0,0,1-1.93-.76,3,3,0,0,1-.72-2.14,4,4,0,0,1,.27-1.44,2.31,2.31,0,0,1,.93-1.05,5.19,5.19,0,0,1,1.88-.61,21,21,0,0,1,3.07-.2Z" transform="translate(-0.79 -3.41)"></path><path class="cls-1" d="M273.71,41.67a6,6,0,0,1-1.43.77,5.89,5.89,0,0,1-4.4-.23,5.11,5.11,0,0,1-1.74-1.46,6.6,6.6,0,0,1-1-2.09,8.71,8.71,0,0,1-.33-2.38c0-2.54.39-4.34,1.15-5.41a4,4,0,0,1,3.39-1.59,4,4,0,0,1,1,.08,1.54,1.54,0,0,1,.5.24l1.41,3.82h.88a10.65,10.65,0,0,0,.64-2.2c.16-.88.29-1.67.35-2.39a8.77,8.77,0,0,0-2.11-.72,12.82,12.82,0,0,0-2.83-.28,7,7,0,0,0-5.39,2.2,8.94,8.94,0,0,0-2,6.28,11.94,11.94,0,0,0,.47,3.46,7.14,7.14,0,0,0,1.4,2.67,6,6,0,0,0,2.31,1.72,8.52,8.52,0,0,0,3.31.6,6,6,0,0,0,3-.76,4.69,4.69,0,0,0,1.84-1.88Z" transform="translate(-0.79 -3.41)"></path><path class="cls-1" d="M254.68,24.13a2.16,2.16,0,0,0,1.5.49,2.13,2.13,0,0,0,1.49-.49,1.73,1.73,0,0,0,.55-1.37,1.82,1.82,0,0,0-.55-1.39,2.07,2.07,0,0,0-1.49-.51,2.17,2.17,0,0,0-1.5.51,1.82,1.82,0,0,0-.56,1.39,1.73,1.73,0,0,0,.56,1.37" transform="translate(-0.79 -3.41)"></path><path class="cls-1" d="M259.77,43.57a7,7,0,0,0-1-.44c-.35-.11-.73-.23-1.15-.33v-15h-.83c-.73.14-1.47.3-2.19.48a17.42,17.42,0,0,0-2,.68v.84l2.13.26V42.75c-.4.11-.78.22-1.15.34a7.53,7.53,0,0,0-1,.44v.8h7.17Z" transform="translate(-0.79 -3.41)"></path><path class="cls-1" d="M240.44,30H243V40.17a5,5,0,0,0,1,3.54A3.84,3.84,0,0,0,247,44.86a5.45,5.45,0,0,0,1.45-.19,6.74,6.74,0,0,0,1.32-.49,9.36,9.36,0,0,0,1.06-.61,4.28,4.28,0,0,0,.72-.62l-.23-.48a5.66,5.66,0,0,1-1.47.31c-.59,0-1.07.08-1.45.08a2.17,2.17,0,0,1-1.85-.81,4.61,4.61,0,0,1-.61-2.72V30h4.84V28.24h-4.84V24h-.81c-.36.15-.73.34-1.15.53a7.85,7.85,0,0,0-1,.64v2.74a8.2,8.2,0,0,0-2.58,1.15Z" transform="translate(-0.79 -3.41)"></path><path class="cls-1" d="M237.7,29.76a5.51,5.51,0,0,0-4.46-1.91,4.53,4.53,0,0,0-3,1,6.55,6.55,0,0,0-1.81,2.63h0V27.85h-.81c-.69.12-1.4.26-2.12.44a14.22,14.22,0,0,0-2.11.73v.84l2.13.25V49.25a11.57,11.57,0,0,0-2.13.78v.8h7.16V50a4.65,4.65,0,0,0-1.1-.53,5.24,5.24,0,0,0-1-.25V44.12a6.89,6.89,0,0,0,1.47.5,9.87,9.87,0,0,0,1.88.15,7.71,7.71,0,0,0,3.11-.62,6.57,6.57,0,0,0,2.36-1.74,7.81,7.81,0,0,0,1.53-2.78,12.05,12.05,0,0,0,.53-3.68C239.28,33.1,238.75,31,237.7,29.76Zm-1.85,9.14a7.7,7.7,0,0,1-.92,2.31,4.4,4.4,0,0,1-1.45,1.55,3.43,3.43,0,0,1-1.91.55,8.53,8.53,0,0,1-1.89-.18,4.25,4.25,0,0,1-1.31-.53v-9a5.8,5.8,0,0,1,1.32-2.74,3.27,3.27,0,0,1,2.52-1,3.56,3.56,0,0,1,1.86.45,3.41,3.41,0,0,1,1.22,1.28,6.26,6.26,0,0,1,.68,1.93,14.16,14.16,0,0,1,.21,2.43A12.13,12.13,0,0,1,235.85,38.9Z" transform="translate(-0.79 -3.41)"></path><path class="cls-1" d="M220.57,28.42a11,11,0,0,0-2-3.71,9.17,9.17,0,0,0-3.25-2.44,11.19,11.19,0,0,0-8.65,0,8.94,8.94,0,0,0-3.21,2.44,11,11,0,0,0-2,3.71,15.79,15.79,0,0,0,0,9.33,11.18,11.18,0,0,0,2,3.74,9.15,9.15,0,0,0,3.22,2.43,11.07,11.07,0,0,0,8.64,0,9.15,9.15,0,0,0,3.22-2.43,11.15,11.15,0,0,0,2-3.72,15.79,15.79,0,0,0,0-9.33ZM217.41,37a10.64,10.64,0,0,1-1.15,3.18,6,6,0,0,1-2.09,2.14,5.09,5.09,0,0,1-2.87.8,5.91,5.91,0,0,1-3.12-.8,6.53,6.53,0,0,1-2.2-2.14,10.26,10.26,0,0,1-1.3-3.18,16.46,16.46,0,0,1-.44-3.89,19.46,19.46,0,0,1,.36-3.88A10,10,0,0,1,205.75,26a5.84,5.84,0,0,1,2-2.14,5.42,5.42,0,0,1,3-.8,5.91,5.91,0,0,1,3.12.8,6.43,6.43,0,0,1,2.2,2.14,10.14,10.14,0,0,1,1.29,3.18,18.39,18.39,0,0,1,0,7.77Z" transform="translate(-0.79 -3.41)"></path><path class="cls-1" d="M134.43,43.57a5.57,5.57,0,0,0-2.13-.77V34.63a12.27,12.27,0,0,0-.36-3.31,5.15,5.15,0,0,0-1-2.07,3.55,3.55,0,0,0-1.7-1.09,8.08,8.08,0,0,0-2.3-.31,4.64,4.64,0,0,0-3.09,1.07,7.07,7.07,0,0,0-2,2.55h0V27.85h-.8c-.8.16-1.56.32-2.31.52a16.21,16.21,0,0,0-1.93.65v.84l2.13.25V42.79a10.62,10.62,0,0,0-2.13.77v.81h6.91v-.81a5.44,5.44,0,0,0-1.94-.77V33.42a6.21,6.21,0,0,1,.62-1.3,5.17,5.17,0,0,1,.92-1.16,4.13,4.13,0,0,1,1.22-.79,3.73,3.73,0,0,1,1.51-.29,2.62,2.62,0,0,1,2.58,1.42,8.7,8.7,0,0,1,.7,3.87v7.65a12,12,0,0,0-1.9.77v.81h6.92Z" transform="translate(-0.79 -3.41)"></path><path class="cls-1" d="M113.49,42.48a6.51,6.51,0,0,0-.07-1.16,8.4,8.4,0,0,1,0-1.23c0-1.15,0-2.23.09-3.46s.08-2.43.08-3.72a9.17,9.17,0,0,0-.17-1.81,4.31,4.31,0,0,0-.66-1.65,3.88,3.88,0,0,0-1.51-1.21,6.39,6.39,0,0,0-2.63-.47,12.55,12.55,0,0,0-3.34.43,10.7,10.7,0,0,0-2.72,1.15,11.7,11.7,0,0,0,.3,2c.16.69.35,1.36.56,2h.84l1.52-3.87a4.19,4.19,0,0,1,1.16-.28h1a2.69,2.69,0,0,1,1.56.43,2.78,2.78,0,0,1,.91,1.23,6.21,6.21,0,0,1,.36,1.91,20.89,20.89,0,0,1-.09,2.5c-1.51.09-2.83.2-4,.37a9.57,9.57,0,0,0-2.87.79A4.07,4.07,0,0,0,102.1,38a4.59,4.59,0,0,0-.59,2.43,4.2,4.2,0,0,0,1.23,3.14A4.48,4.48,0,0,0,106,44.68a5,5,0,0,0,1.84-.32,5,5,0,0,0,1.39-.85,4.13,4.13,0,0,0,1-1.15,4.46,4.46,0,0,0,.51-1.31h.16a13.51,13.51,0,0,0,.09,2,4.76,4.76,0,0,0,.4,1.62h.8a12.17,12.17,0,0,0,1.89-.48,12.72,12.72,0,0,0,1.79-.74v-.68ZM110.65,40a3.81,3.81,0,0,1-.35.8,5.09,5.09,0,0,1-.68.92,3.75,3.75,0,0,1-1,.77,2.76,2.76,0,0,1-1.41.32,2.48,2.48,0,0,1-1.94-.76,3,3,0,0,1-.71-2.14,3.75,3.75,0,0,1,.26-1.44,2.37,2.37,0,0,1,.93-1.05,5.21,5.21,0,0,1,1.87-.61,21,21,0,0,1,3.07-.2Z" transform="translate(-0.79 -3.41)"></path><path class="cls-1" d="M99.13,41.67a5.85,5.85,0,0,1-1.41.77,5.32,5.32,0,0,1-2,.32,5.2,5.2,0,0,1-2.45-.55,5.11,5.11,0,0,1-1.74-1.46,6.07,6.07,0,0,1-1-2.09,8.36,8.36,0,0,1-.35-2.38c0-2.54.4-4.34,1.15-5.41a4,4,0,0,1,3.39-1.59,3.94,3.94,0,0,1,1,.08,1.45,1.45,0,0,1,.52.24l1.39,3.82h.88a10.65,10.65,0,0,0,.64-2.2,22.87,22.87,0,0,0,.36-2.39,8.84,8.84,0,0,0-2.12-.72,12.73,12.73,0,0,0-2.82-.28A7,7,0,0,0,89.1,30a9,9,0,0,0-2,6.28,12.29,12.29,0,0,0,.47,3.46A7.38,7.38,0,0,0,89,42.42a6.19,6.19,0,0,0,2.3,1.72,8.74,8.74,0,0,0,3.31.6,6,6,0,0,0,3-.76,4.59,4.59,0,0,0,1.89-1.89Z" transform="translate(-0.79 -3.41)"></path><path class="cls-1" d="M80.11,24.13a2.13,2.13,0,0,0,1.49.49,2.06,2.06,0,0,0,1.49-.49,1.73,1.73,0,0,0,.55-1.37,1.79,1.79,0,0,0-.55-1.39,2,2,0,0,0-1.45-.51,2.14,2.14,0,0,0-1.5.51,1.82,1.82,0,0,0-.56,1.39,1.73,1.73,0,0,0,.56,1.37" transform="translate(-0.79 -3.41)"></path><path class="cls-1" d="M85.19,43.57a6.54,6.54,0,0,0-1-.44c-.35-.11-.73-.23-1.15-.33v-15h-.81c-.72.14-1.46.3-2.19.48A17.91,17.91,0,0,0,78,29v.84l2.12.26V42.75c-.4.11-.78.22-1.15.34a7.28,7.28,0,0,0-1,.44v.8h7.16Z" transform="translate(-0.79 -3.41)"></path><path class="cls-1" d="M77.12,30.66v-.84c-.1-.35-.22-.71-.33-1.05a6.81,6.81,0,0,0-.41-.92,3.88,3.88,0,0,0-1.69.19,5.47,5.47,0,0,0-1.52.78A7.39,7.39,0,0,0,72,30a6.3,6.3,0,0,0-.83,1.29H71V27.81h-.81c-.67.11-1.36.25-2.09.43A14.58,14.58,0,0,0,66,29v.84l2.14.25V42.74c-.35.08-.68.19-1,.29a5.82,5.82,0,0,0-1.15.48v.81h7.66v-.81A6.6,6.6,0,0,0,72.28,43,9.17,9.17,0,0,0,71,42.74V33.21a5.35,5.35,0,0,1,1-1.75,3.94,3.94,0,0,1,.88-.8Z" transform="translate(-0.79 -3.41)"></path><path class="cls-1" d="M63.56,31.11a5,5,0,0,0-3.35-2.9A7.94,7.94,0,0,0,58,27.9a6.8,6.8,0,0,0-5.39,2.16,9.24,9.24,0,0,0-1.91,6.3,11.18,11.18,0,0,0,.51,3.45,7.36,7.36,0,0,0,1.47,2.67,6.35,6.35,0,0,0,2.46,1.69,8.77,8.77,0,0,0,3.36.6,6.58,6.58,0,0,0,1.71-.22A7.54,7.54,0,0,0,61.75,44,5.78,5.78,0,0,0,63,43.16a3.15,3.15,0,0,0,.81-1l-.45-.52a4.4,4.4,0,0,1-1.74.84,8.19,8.19,0,0,1-2.3.32,5.28,5.28,0,0,1-2.42-.49,4.76,4.76,0,0,1-1.77-1.37,5.89,5.89,0,0,1-1-2,9.48,9.48,0,0,1-.34-2.54H63.84A9.61,9.61,0,0,0,64,35.16V34A7.15,7.15,0,0,0,63.56,31.11ZM61,34.37v.57H53.89A8.33,8.33,0,0,1,55,30.56a3.34,3.34,0,0,1,2.81-1.23,2.64,2.64,0,0,1,2.42,1.22A6,6,0,0,1,61,33.84a4,4,0,0,1,0,.49Z" transform="translate(-0.79 -3.41)"></path><path class="cls-1" d="M39.85,43.57a14.27,14.27,0,0,0-2.1-.77V33.58A6.93,6.93,0,0,1,39,30.92a2.9,2.9,0,0,1,2.41-1.06,3.06,3.06,0,0,1,1.54.33,2.43,2.43,0,0,1,.91,1,4.78,4.78,0,0,1,.43,1.53,16,16,0,0,1,.11,2.08v8.06a9.26,9.26,0,0,0-1.9.78v.8h6.92v-.8a6.8,6.8,0,0,0-2.14-.78V34.77a16.4,16.4,0,0,0-.22-3.43,5,5,0,0,0-.85-2.09,3.08,3.08,0,0,0-1.45-1.09,6.42,6.42,0,0,0-2.09-.31A4.84,4.84,0,0,0,39.45,29a6,6,0,0,0-1.87,2.87,6.44,6.44,0,0,0-.61-2,3.57,3.57,0,0,0-1-1.21,3.85,3.85,0,0,0-1.32-.6,6.8,6.8,0,0,0-1.49-.16A4.61,4.61,0,0,0,30,29a5.77,5.77,0,0,0-1.76,2.58h0v-3.7h-.81c-.69.12-1.39.26-2.12.44a13.16,13.16,0,0,0-2.11.73v.84l2.13.25V42.79a9.56,9.56,0,0,0-1.15.36,7.24,7.24,0,0,0-1,.41v.81h6.91v-.81a7.08,7.08,0,0,0-.92-.44l-1-.33V33.31A5.57,5.57,0,0,1,28.76,32a4.88,4.88,0,0,1,.81-1.15,3.84,3.84,0,0,1,1.06-.77,3.19,3.19,0,0,1,2.82.08,2.32,2.32,0,0,1,.89,1.07A6,6,0,0,1,34.77,33c.07.69.1,1.46.1,2.3v7.46a6.7,6.7,0,0,0-1.15.37,8.52,8.52,0,0,0-.8.4v.81h6.92Z" transform="translate(-0.79 -3.41)"></path><path class="cls-1" d="M21.64,43c-.43-.1-.85-.21-1.28-.29L12.2,21.4h-.93L3.1,42.64a12.28,12.28,0,0,0-2.31.77v.93H8v-.9a11.73,11.73,0,0,0-2.79-.8l2.12-5.91H15l2.14,5.91a12.25,12.25,0,0,0-1.33.32c-.44.13-.88.28-1.31.45v.93h8.4v-.9A4.43,4.43,0,0,0,21.64,43ZM7.88,35.09l2.47-6.78.8-2.84h.07l.6,2.77,2.54,6.85Z" transform="translate(-0.79 -3.41)"></path><path class="cls-2" d="M189.52,4H147.18a3.47,3.47,0,0,0-3.53,3.39v.14c0,3.53,0,37.36,24.7,45.86,24.7-8.5,24.7-42.33,24.7-45.86A3.46,3.46,0,0,0,189.66,4Z" transform="translate(-0.79 -3.41)"></path><path class="cls-1" d="M175.39,32.27c-.49-.13-1-.26-1.53-.36L164.05,6.33H162.9L153.09,31.9a15.49,15.49,0,0,0-2.79.93V34h8.61V32.83a14.2,14.2,0,0,0-3.33-.93l4.53-12.25h5.66L170,31.9c-.52.1-1.05.24-1.59.39a14.87,14.87,0,0,0-1.59.54V34h10V32.83A5.46,5.46,0,0,0,175.39,32.27ZM160.5,18l2.31-6.8h.08l2.19,6.8Z" transform="translate(-0.79 -3.41)"></path><path class="cls-1" d="M185.2,24.86a13,13,0,0,0-2.41-4.48,10.86,10.86,0,0,0-3.86-2.92,13.33,13.33,0,0,0-10.37,0,10.83,10.83,0,0,0-3.85,2.92,13.12,13.12,0,0,0-2.4,4.48,18,18,0,0,0-.84,5.6,18,18,0,0,0,.84,5.6,13.32,13.32,0,0,0,2.41,4.46,10.52,10.52,0,0,0,3.85,2.92,13.33,13.33,0,0,0,10.37,0,10.47,10.47,0,0,0,3.86-2.92,13,13,0,0,0,2.41-4.46,19.09,19.09,0,0,0,0-11.2Zm-3.06,10.71a14.61,14.61,0,0,1-1.58,4.2,8.23,8.23,0,0,1-2.65,2.82,6.85,6.85,0,0,1-3.78,1,7.84,7.84,0,0,1-4.13-1,8.75,8.75,0,0,1-2.89-2.82,13.3,13.3,0,0,1-1.72-4.2,22.5,22.5,0,0,1-.58-5.11,27.57,27.57,0,0,1,.46-5.13,13.91,13.91,0,0,1,1.5-4.19,8,8,0,0,1,2.65-2.82,7.33,7.33,0,0,1,4-1.05,8,8,0,0,1,4.13,1.05,8.75,8.75,0,0,1,2.89,2.82,13.39,13.39,0,0,1,1.69,4.21,22.65,22.65,0,0,1,.56,5.13A23.53,23.53,0,0,1,182.14,35.57Z" transform="translate(-0.79 -3.41)"></path></svg> 