<svg id="Слой_1" xmlns="http://www.w3.org/2000/svg" width="179.8" height="32.7" viewBox="0 0 179.8 32.7">
    <style>.st0{fill:#6d6968}</style>
    <path class="st0"
          d="M0 6.7h32V.2H0v6.5zm21 19.5c-1.1 1.6-2.9 2.7-4.9 2.7-2.1 0-3.9-1.1-4.9-2.7H0v6.6h32v-6.6H21zm-21-13v6.6h11.1c1-1.6 2.9-2.7 5-2.7s3.9 1.1 4.9 2.7h11v-6.6H0zM48.8 2.1c-2.6 1.4-4.6 3.4-6.1 5.9-1.4 2.5-2.2 5.2-2.2 8.2 0 4.7 1.6 8.7 4.7 11.8 3.1 3.1 7.2 4.7 12.1 4.7l2.1-.1v-3.7l-1.9.1c-3.7 0-6.8-1.2-9.2-3.6-2.4-2.4-3.7-5.3-3.7-8.9 0-3.5 1.3-6.5 3.8-9 2.5-2.4 5.5-3.7 9-3.7l2 .1V.1L57.1 0c-3 0-5.8.7-8.3 2.1m23.1 30.2h4.3V.2h-4.3v32.1zm30-32.1v22.3L93.4.2h-4v32.1h4.1V9.9l8.5 22.4h4V.2h-4.1zm16.1 0v3.9h8.9l-10.4 28.2h15.4v-4h-9.4L132.8.2H118zm26 32.1h4.4V.2H144v32.1zm23.4-9.9l2.9-13.9 2.9 13.9h-5.8zM172.3.2h-4l-7.5 32.1h4.4l1.5-6.3h7.3l1.5 6.3h4.4L172.3.2z"/>
</svg>