<svg id="Слой_1" xmlns="http://www.w3.org/2000/svg" width="251.6" height="39.9" viewBox="0 0 251.6 39.9">
    <style>.st0{fill:none;stroke:#6d6968;stroke-width:.25}.st1{fill:#6d6968}.st2{fill:#77777a}</style>
    <path class="st0" d="M0 39.7h251.6"/>
    <path class="st1"
          d="M249.5 13.2c0-.8-.8-2.4-1.8-3.1-.8-.5-1.8-.7-2.7-.7-1.6 0-3.5 1.2-4.4 2.4h-.1l-.2-2c0-.3-.1-.4-.3-.4-.1 0-.3.1-.6.2l-2.8 1.5c-.2.1-.3.2-.3.3v.2c0 .1 0 .2.3.3l.3.1c.8.4 1.3.9 1.3 1.9v7.5c0 .5-.2.6-.6.6h-.9c-.3 0-.3.1-.3.3v.6c0 .2.1.3.2.3.2 0 1.2-.1 2.9-.1s2.6.1 2.8.1c.2 0 .2-.1.2-.3v-.5c0-.2-.1-.3-.3-.3h-.8c-.7 0-.8-.2-.8-1.1v-6.7c0-.6.1-1.5.7-2.2 1-1 2.1-1.3 2.6-1.3.8 0 1.6 0 2.4.6.9.7.9 1.6.9 2.9v4.3c0 .8 0 1.9-.1 2.7 0 .6-.3.7-.6.7h-.9c-.3 0-.4.1-.4.3v.7c0 .3.1.4.3.4.2 0 1.3-.1 2.9-.1 1.8 0 2.8.1 3.1.1.2 0 .3-.1.3-.4v-.5c0-.2-.1-.3-.4-.3h-1c-.4 0-.7-.2-.7-.7v-8.3h-.2zm-27.4-2.8c2.1 0 2.5 2.1 2.5 2.9 0 .3-.3.5-.9.5h-5c.6-2.4 2-3.4 3.4-3.4zm5.6 9.3l-.4-.2c-.1 0-.2 0-.3.2-.5 1.1-1.9 2.2-3.9 2.2-2.6 0-4.6-2.4-4.6-5.5 0-.7 0-1.3.1-1.5h8c.5 0 .9-.1.9-.5 0-1.3-1-4.7-4.7-4.7-1.6 0-3.2.3-4.6 1.7-1.7 1.7-2 3.9-2 5.1 0 2.3.3 3.4 1.4 5.1 1.2 1.7 3.2 2.3 5.1 2.3 2.9 0 4.5-2.2 5.1-3.5 0-.6 0-.7-.1-.7zM196.6 32c1.7 0 2.3-1.3 2.7-2.1.6-1.1 1.8-4.1 3.4-7.6 2.2-5.1 4.3-10 5.1-10.9.3-.4.8-.6 1.1-.6h.5c.2 0 .2-.1.2-.3V10c0-.1 0-.3-.2-.3-.4 0-1.1.1-2 .1-1.5 0-2.2-.1-2.6-.1-.2 0-.2.1-.2.3v.6c0 .2 0 .3.2.3h.5c.5 0 .7.4.5 1.2-.2.8-3 7.5-3.3 8h-.1c-.4-.7-2.5-7.8-2.6-8.5-.1-.5.1-.7.4-.7h.6c.2 0 .2-.1.2-.3v-.7c0-.1 0-.2-.3-.2-.4 0-1.4.1-3 .1-1.9 0-2.7-.1-3-.1-.2 0-.3.1-.3.2v.6c0 .2 0 .3.3.3h.8c.8 0 1.1.5 1.5 1.4.3.7 3.7 10.8 3.8 11.6-.5 1.3-2.1 4.9-2.6 5.5-.2.2-.5.2-.7.2-.3-.1-.9-.4-1.5-.4-.8 0-1.5.6-1.5 1.3.3 1 .9 1.6 2.1 1.6m-21.9-20.1c-.6 0-1 0-1.4-.1V2.7c0-.5.2-.9.4-1 .3-.2.7-.3 1.1-.3 2.7 0 4.1.5 5.3 1.5.9.8 1.6 2.2 1.6 3.7 0 1.3-1.1 5.3-7 5.3zm13.8 10.2c-.9 0-1.6-.1-2.3-.5-.6-.5-2.7-3.4-2.8-3.7-.3-.4-2.5-3.7-2.9-4.1-.3-.4-.7-.9-1.5-1.2v-.1c4.1-.9 6-2.4 6-6.4 0-1.2-.6-2.6-1.7-3.7-1.2-1.2-3.3-2-6-2-.6 0-3.6.1-5.4.1-2.7 0-3.7-.1-4-.1-.2 0-.2.1-.2.2v.8c0 .1 0 .2.2.2h1.3c.8 0 1.2.5 1.2 1.6v8.5c0 3.1 0 6.1-.1 9.3 0 .9-.5 1.1-1.3 1.1h-1.3c-.2 0-.2.1-.2.3v.7c0 .2 0 .3.3.3.4 0 1.1-.1 4-.1 3.1 0 3.9.1 4.2.1.3 0 .4-.1.4-.3v-.7c0-.2 0-.3-.3-.3h-2c-.5 0-.7-.6-.8-1.3 0-.5-.1-4.1-.1-6V13c.5-.1.8-.1 1.1-.1 1.9 0 2.6.9 3.5 1.9.4.5 1.9 2.8 2.1 3 .2.3 1.9 3.3 2.2 3.7.3.4 1 1.5 1.4 1.8.5 0 1.7-.1 2.6-.1 1.4 0 2.3.1 2.5.1.2 0 .3-.1.3-.3v-.7c-.1-.1-.2-.2-.4-.2zM142 10.8c0-1.8.1-8.5.1-10.2 0-.4 0-.6-.3-.6-.2 0-.4.1-.7.3-1.2.8-2.6 1.4-3.8 1.9-.2.1-.3.1-.3.2v.3c0 .1 0 .1.2.2l.8.1c1 .3 1.5.8 1.6 1.9.1.8.1 3.8.1 6.1v10.4c0 .6-.4.8-.7.8h-1.5c-.4 0-.4.1-.4.3v.5c0 .2.1.3.2.3.3 0 1.6-.1 3.6-.1s3.4.1 3.6.1c.1 0 .2-.1.2-.3v-.5c0-.2-.1-.3-.4-.3h-1.4c-.7 0-.8-.5-.8-1V10.8h-.1zm-18.3-.4c2.1 0 2.5 2.1 2.5 2.9 0 .3-.3.5-.9.5h-5c.6-2.4 2-3.4 3.4-3.4zm5.5 9.3l-.4-.2c-.1 0-.2 0-.3.2-.5 1.1-1.9 2.2-3.9 2.2-2.6 0-4.6-2.4-4.6-5.5 0-.7 0-1.3.1-1.5h8c.5 0 .9-.1.9-.5 0-1.3-1-4.7-4.7-4.7-1.6 0-3.2.3-4.6 1.7-1.7 1.7-2 3.9-2 5.1 0 2.3.3 3.4 1.4 5.1 1.2 1.7 3.2 2.3 5.1 2.3 2.9 0 4.5-2.2 5.1-3.5.1-.6 0-.7-.1-.7zm-24.3.5c0 .9-1.7 2-2.6 2-1 0-1.7-.6-1.7-1.8 0-2.7 3.2-3.3 4.3-4.2v4zm5.1 1.3l-.3-.3c-.1-.1-.2 0-.3.1-.2.2-.6.5-1.1.5-.6 0-1-.6-1-2.4v-6.8c0-.9 0-1.6-.7-2.3-.5-.4-1.1-.9-2.6-.9-1.4 0-2.6.3-3.9 1.1-1.3.8-2.2 2-2.2 3 0 .7.3 1 .8 1 1.3 0 1.7-.7 1.7-1.8 0-.6-.3-1.1.2-1.5.5-.4 1.4-.7 2.1-.7.9 0 1.6.3 1.9.7.4.4.4 1.3.5 1.8v2.1c-.5.5-2.2 1.2-3.6 1.9-2.5 1.1-3.2 2.4-3.2 3.9 0 2 1.2 2.7 1.9 2.7s1.3 0 1.9-.2c1.4-.5 2.5-1.2 3.2-2h.1c.3 1.3 1.1 2.2 2.3 2.2 1.6 0 2.3-1.1 2.5-1.6-.1-.2-.1-.4-.2-.5zm-34.2-6c0 2.1 0 5.6-.1 6.2-.1.4-.5.5-1.1.5H74c-.4 0-.5 0-.5.3v.6c0 .2.1.3.2.3.3 0 1.5-.1 3.1-.1 1.5 0 2.8.1 3.1.1.2 0 .3-.1.3-.4v-.5c0-.2-.1-.3-.4-.3h-1c-.6 0-.7-.3-.7-1.3v-7c0-.6.4-1.2.6-1.6.9-1 2.1-1.4 3-1.4.8 0 1.5.3 2.1.9.9.9 1.1 2.2 1.1 4v5.8c0 .5-.7.6-1.2.6H83c-.2 0-.2.1-.2.3v.5c0 .3.1.4.3.4.3 0 1.4-.1 3-.1 1.8 0 2.9.1 3.1.1.2 0 .3-.1.3-.4v-.5c0-.2-.1-.3-.4-.3h-.5c-.7 0-1.2-.1-1.2-.5 0-.6-.1-2.6-.1-4.4v-1.8c0-1.7.1-3.4-1.4-4.7-.9-.9-1.9-1.3-3.2-1.3-1.4 0-3.3.7-4.4 2.1h-.2V9.5c0-1.6 0-8.1.1-8.7.1-.5-.1-.8-.2-.8-.3 0-.5.1-.7.3L73.9 2c-.3.2-.4.2-.4.3v.3c0 .1 0 .1.2.2l.5.2c1.2.4 1.5.7 1.5 2.7v9.8h.1zm-15.7-5c.8 0 1.4.1 2.2 1.4.5.9 1 1.3 1.8 1.3.7 0 1.2-.4 1.2-1.1 0-.7-1-2.6-4.4-2.6-4.3 0-6.9 3.8-6.9 7.6 0 1.4.3 2.8 1.4 4.4 1.5 1.9 3.3 2.3 5 2.3 2.2 0 4.3-1.2 5.2-2.3.2-.2.1-.3 0-.4l-.3-.3c-.1-.1-.2-.1-.3 0-1.1 1-1.9 1.4-3.5 1.4-1.1 0-2.4-.3-3.5-1.6-.9-1.2-1.6-3.2-1.6-4.9-.1-3.5 1.9-5.2 3.7-5.2"/>
    <path class="st2" d="M41.4 5.8c1.4 0 1.9-1 1.9-1.9 0-.7-.5-1.7-1.7-1.7-1.3 0-2 1-2 1.8-.1 1.1 1 1.8 1.8 1.8"/>
    <path class="st1"
          d="M41.1 18.6v2.9c0 .5-.2.6-.5.6H39c-.2 0-.3.1-.3.3v.6c0 .2.1.3.3.3.4 0 1.6-.1 3.5-.1 1.4 0 2.8.1 3.1.1.2 0 .3-.1.3-.3v-.5c0-.2-.1-.3-.3-.3h-1.5c-.4 0-.5-.2-.5-.8v-6.3c0-2.7 0-4.7.1-5.2 0-.2 0-.4-.2-.4s-.4.1-.6.2c-1.2.7-2.4 1.2-3.5 1.6-.4 0-.4.1-.4.2v.3c0 .1.1.2.3.2 1.6.3 1.8.8 1.8 1.9v4.7zM8.3.9C8.1.5 7.9.4 7.4.4 7 .4 6.2.5 4.7.5 2 .5 1.1.4.8.4.6.4.6.5.6.6v.8c0 .1 0 .2.2.2h2c1.3 0 1.3.5 1.3 1.2V9c0 .6-.1 8.8-.5 11.1-.2 1.1-.5 1.9-1.7 1.9H.2c-.2.1-.2.2-.2.3v.8c0 .3 0 .3.3.3s1.4-.1 4.2-.1c2.7 0 3.5.1 3.9.1.3 0 .3-.1.3-.2v-.8c0-.1 0-.2-.2-.2H6.8c-1 0-1.3-.5-1.5-2.4-.1-1.1-.1-7.9-.1-8.3 0-.4.1-8.5.2-9 .5.4 3.4 7.6 4 9.1l4.4 10.8c.1.3.3.6.5.6.3 0 .5-.5.6-.8.1-.3 3.7-8.5 3.9-8.9.2-.3 4.7-10.5 5.1-10.9h.1c.1.3.1 6 .1 8.1v2.1c0 2.4 0 8-.1 8.4-.1 1-.4 1.2-.9 1.2h-2.2c-.2 0-.3.1-.3.2v.7c0 .2 0 .3.3.3.4 0 1.7-.1 4.6-.1 3.5 0 4.1.1 4.5.1.3 0 .3-.1.3-.3v-.7c0-.1 0-.2-.2-.2h-1.9c-.8 0-1.1-.5-1.1-1.7 0-.6-.1-5.9-.1-7.5v-2.3c0-2.2.1-6.8.1-7.7 0-.7.1-1.3 1.1-1.3h1.4c.2 0 .3-.1.3-.3V.6c0-.1 0-.2-.2-.2-.4 0-1.4.1-5.7.1-.3 0-.7 0-.7.4-.1.6-3.6 8.2-3.8 8.7-.3.4-3.5 8.1-3.9 8.6L8.3.9z"/>
</svg>