<svg id="Слой_1" xmlns="http://www.w3.org/2000/svg" xmlns:xlink="http://www.w3.org/1999/xlink" width="255.1"
     height="28.6" viewBox="0 0 255.1 28.6">
    <style>.st0{clip-path:url(#SVGID_1_)}.st0,.st1{fill:#6d6968}</style>
    <defs>
        <path id="SVGID_3_" d="M0 28.6h255.1V0H0v28.6z"/>
    </defs>
    <clipPath id="SVGID_1_">
        <use xlink:href="#SVGID_3_" overflow="visible"/>
    </clipPath>
    <path class="st0"
          d="M147.4 4s-.2.1-.1.3c0 0 .9 1.1.9 2.4 0 1.3-.8 3.6-1.1 4.1 0 0-.1.3 0 .4.1.1.4 0 .6-.3 0 0 2.4-3.2 2.4-5.5 0 0 .3-1.5-2.5-1.6 0 .1-.1.1-.2.2M39.8 0L36 3.4s-.2.2-.1.4.3.2.5-.1c.2-.2 2.7-2 2.7-2s.7-.3 1 .1c.4.4 2.3 2 2.3 2s.1.2.4 0l.7-.8s.3-.2.1-.4L40-.1c.1.2 0 0-.2.1M3.6 25.4C.7 22.8 0 19.4 0 16.6c0-2 .7-5.4 3.3-8.1 1.8-1.8 4.5-3.2 9-3.2 1.2 0 2.8.1 4.3.3 1.1.2 2.1.4 3 .4.3 0 .4.1.4.3 0 .2-.1.6-.1 1.7-.1 1-.1 2.6-.1 3.1s-.1.6-.3.6c-.2 0-.2-.2-.2-.6 0-1.1-.5-2.4-1.3-3-1-.9-3.3-1.7-5.9-1.7-3.9 0-5.8 1.2-6.8 2.2-2.2 2.1-2.7 4.7-2.7 7.7C2.7 22 7 27.2 13.4 27.2c2.2 0 4-.3 5.2-1.5.6-.7 1-2 1.1-2.5.1-.3.1-.4.3-.4.1 0 .2.2.2.4s-.4 2.8-.7 3.8c-.2.6-.2.6-.8.9-1.2.5-3.4.7-5.3.7-4.5 0-7.5-1.1-9.8-3.2"/>
    <path class="st1"
          d="M31.1 16.1c0-6.5 3.7-9.7 8.7-9.7 4.7 0 9 3.8 9 10.9 0 8.6-5.5 10.2-8.2 10.2-5.3-.1-9.5-4.5-9.5-11.4m-2.8.8c0 5.3 3.4 11.6 11.5 11.6 7.1 0 11.8-5.5 11.8-12.1 0-6.9-5-11.1-11.6-11.1-8.2 0-11.7 6.8-11.7 11.6m41.3 2.6c0 2.8 0 5.2.2 6.4.1.9.3 1.5 1.2 1.6.4.1 1.1.1 1.3.1.2 0 .2.1.2.2s-.1.2-.5.2c-1.6 0-3.5-.1-3.6-.1-.2 0-2 .1-2.9.1-.3 0-.5-.1-.5-.2s.1-.2.2-.2c.3 0 .6-.1.9-.1.6-.1.7-.8.9-1.6.1-1.2.1-3.6.1-6.4V7l-4.4.1c-1.8 0-2.5.2-3 .9-.3.5-.4.7-.5.9-.1.2-.2.3-.3.3-.1 0-.1-.1-.1-.3 0-.3.6-2.8.7-3.1.1-.2.2-.6.3-.6.2 0 .5.3 1.3.4.9.1 2 .2 2.3.2h11.1c1.9 0 2.7-.3 2.9-.3.1 0 .1.2.1.4 0 .9-.1 2.9-.1 3.3 0 .3-.1.4-.2.4s-.2-.1-.2-.5v-.3c-.1-.9-.8-1.6-3.6-1.6L69.6 7v12.5zm18.6-5.1c0-4.6 0-5.5-.1-6.4-.1-1-.3-1.5-1.3-1.7-.2-.1-.7-.1-1-.1-.1 0-.2-.1-.2-.2 0-.2.1-.2.5-.2 1.3 0 3.2.1 3.3.1h6.8c.6 0 1-.1 1.3-.2.1 0 .3-.1.4-.1.1-.1.1.1.1.2 0 .2-.2.6-.2 1.4 0 .3-.1 1.6-.1 2 0 .1-.1.3-.2.3-.2 0-.2-.2-.2-.4s0-.7-.2-1.1c-.2-.5-.5-.8-2.1-1-.5-.1-3.7-.1-4.1-.1-.1 0-.2.1-.2.3v8.2c0 .2 0 .3.2.3.4 0 4 0 4.7-.1.7-.1 1.1-.1 1.4-.4.2-.2.3-.4.4-.4.1 0 .1.1.1.2 0 .2-.1.7-.2 1.7-.1.6-.1 1.7-.1 1.9 0 .2 0 .6-.2.6-.1 0-.2-.1-.2-.3 0-.3 0-.6-.1-1s-.4-.9-1.5-1.1c-.8-.1-3.7-.2-4.2-.2-.1 0-.2.1-.2.2v7.6c.1 2 .5 2.4 3.4 2.4.8 0 2.1 0 2.8-.3.8-.3 1.1-.9 1.3-2.1.1-.3.1-.4.3-.4.2 0 .2.2.2.4s-.2 2.2-.4 2.9c-.2.8-.4.8-1.6.8-4.5 0-6.5-.2-7.3-.2-.1 0-2 .1-2.9.1-.3 0-.5-.1-.5-.2s.1-.2.2-.2c.3 0 .6-.1.9-.1.6-.1.7-.8.9-1.6.2-1.2.2-3.6.2-6.4v-5.1h-.1zm36.1-.5V7.6c0-.3.1-.5.4-.6.2-.1 1.3-.2 1.9-.2 3.5 0 6.9.4 9.7 3.3 1.2 1.3 2.8 3.7 2.8 7.5 0 2.7-.8 5.6-2.4 7.1-1.8 1.8-4.3 2.8-7 2.8-3.5 0-4.6-.6-5-1.2-.2-.3-.3-1.5-.3-2.2 0-.6-.1-3.3-.1-6.4v-3.8zm-2.5 5.7c0 2.8 0 5.2-.1 6.4-.1.9-.3 1.5-.9 1.6-.3.1-.6.1-.9.1-.2 0-.2.1-.2.2 0 .2.1.2.5.2.9 0 2.8-.1 2.9-.1.3 0 4 .3 6.6.3 5 0 7.7-2.1 9-3.4 1.7-1.7 3.2-4.6 3.2-8.3 0-3.5-1.4-6-2.9-7.5-3.5-3.6-8.9-3.4-11.9-3.4-1.8 0-3.6.1-4 .1-.1 0-2-.1-3.4-.1-.3 0-.5.1-.5.2s.1.2.2.2c.3 0 .8 0 1 .1 1 .2 1.2.7 1.3 1.7.1.9.1 1.8.1 6.4v5.3zm35.5-1.3c-.1 0-.1-.1-.1-.2l2.6-8c.1-.4.3-.4.4 0l2.8 8c0 .1 0 .2-.1.2h-5.6zm-4.1 6.6c-.5 1.5-1.1 2.6-2.5 2.8-.2 0-.7.1-.9.1-.1 0-.3.1-.3.2 0 .2.2.2.6.2 1.4 0 3-.1 3.3-.1.3 0 1.6.1 2.3.1.3 0 .4-.1.4-.2s-.1-.2-.3-.2h-.3c-.5 0-1.1-.3-1.1-.9 0-.5.1-1.2.4-2l1.8-5.2c.1-.1.1-.2.3-.2h6.4c.1 0 .2.1.3.2l2.8 7.3c.2.5 0 .7-.2.8-.1 0-.2.1-.2.2 0 .2.3.2.9.2 2 .1 4.2.1 4.7.1.3 0 .6-.1.6-.2s-.1-.2-.3-.2c-.3 0-.7 0-1.2-.2-.6-.2-1.5-.7-2.6-3.3-1.8-4.5-6.5-16.7-6.9-17.9-.4-.9-.5-1.1-.6-1.1-.2 0-.3.2-.7 1.2l-6.7 18.3zm36 2c3.1 0 4.1-.6 4.7-1.5.3-.4.5-1.2.6-1.6.1-.3.1-.5.3-.5.2 0 .2.1.2.7 0 .9-.4 2.7-.6 3.4-.2.7-.2.8-.9.8-5 0-9.9-.1-15.1-.2-.3 0-.5 0-.5-.2 0-.1.1-.3.4-.8 4.4-6.7 8.9-13.3 13-20h-6.4c-1.5 0-3.3.1-4.3.6-1.1.6-1.6 1.7-1.7 2.3-.1.4-.2.5-.3.5s-.2-.2-.2-.4c0-.4.4-3.1.6-3.9.1-.4.1-.6.3-.6.3 0 .4.2 1.2.2 2.8.1 4.2.1 5.2.1h8.3c.4 0 .6.1.6.2s0 .2-.1.4c-4.3 6.8-8.8 13.6-13.3 20.5h8zm15.3-12.5c0-4.6 0-5.4-.1-6.4s-.3-1.5-1.3-1.7c-.2-.1-.7-.1-1-.1-.1 0-.2-.1-.2-.2 0-.2.1-.2.5-.2 1.3 0 3.1.1 3.4.1.3 0 2-.1 2.9-.1.3 0 .5.1.5.2s-.1.2-.2.2c-.2 0-.4 0-.7.1-.8.1-1 .7-1.1 1.7-.1.9-.1 1.8-.1 6.4v4.1c0 4.3.9 6.1 2.2 7.3 1.5 1.4 2.8 1.6 4.5 1.6 1.8 0 3.6-.9 4.7-2.1 1.4-1.7 1.7-4.2 1.7-7.3v-3.7c0-4.6 0-5.4-.1-6.4s-.3-1.5-1.3-1.7c-.2-.1-.7-.1-1-.1-.1 0-.2-.1-.2-.2 0-.2.1-.2.5-.2 1.3 0 3 .1 3.1.1.2 0 1.6-.1 2.5-.1.3 0 .5.1.5.2s-.1.2-.2.2c-.2 0-.4 0-.7.1-.8.1-1 .7-1.1 1.7-.1.9-.1 1.8-.1 6.4v3.2c0 3.2-.4 6.7-2.7 8.9-2.1 1.9-4.4 2.2-6.1 2.2-1 0-4-.1-6.1-2.1-1.5-1.4-2.6-3.5-2.6-7.8v-4.3h-.1zm33.1-7.1c0-.2.1-.3.2-.4.3-.1 1.1-.2 2-.2 3.2 0 5.1 2.2 5.1 5.9 0 2.2-.8 3.8-1.8 4.6-.7.5-1.5.6-2.2.6-1.3 0-2.7-.2-3.1-.5-.1-.1-.2-.2-.2-.4V7.3zm-2.4 12.3c0 2.8 0 5.2-.1 6.4-.1.9-.3 1.5-.9 1.6-.3.1-.6.1-.9.1-.2 0-.2.1-.2.2 0 .2.1.2.5.2.9 0 2.8-.1 2.8-.1.2 0 2 .1 3.7.1.3 0 .5-.1.5-.2s-.1-.2-.2-.2c-.3 0-.9-.1-1.3-.1-.9-.1-1.1-.8-1.2-1.6-.1-1.2-.1-3.6-.1-6.4v-.7c0-.1.1-.2.2-.2l3.6.1c.2 0 .3.1.4.2.6.8 2 2.8 3.2 4.4 1.7 2.2 2.7 3.7 4 4.4.8.4 1.5.6 3.2.6h2.1c.5 0 .7-.1.7-.2s-.1-.2-.3-.2c-.2 0-.6 0-1.2-.1-.7-.1-2-.4-3.6-2.1-1.7-1.8-3.7-4.5-6.2-7.6 2.7-2.5 3.6-4.7 3.6-6.8 0-2-1.3-3.5-2.1-4-1.6-1.1-3.6-1.3-5.4-1.3-.9 0-3.2.1-3.5.1-.2 0-2-.1-3.3-.1-.3 0-.5.1-.5.2s.1.2.2.2c.3 0 .8 0 1 .1 1 .2 1.2.7 1.3 1.7.1.9.1 1.8.1 6.4v4.9h-.1z"/>
</svg>