<?xml version="1.0" encoding="UTF-8"?> <svg xmlns="http://www.w3.org/2000/svg" id="Layer_1" data-name="Layer 1" width="114" height="43" viewBox="0 0 114 43"><defs><style> .cls-1 { fill: #76777a; } </style></defs><path class="cls-1" d="M32.44,19.77c-.06-.77,.06-1.48-.13-2.19-.26-.77-.52-1.61-.71-2.45-.06-.52-.32-.97-.39-1.48-.13-.64-.39-1.1-.71-1.55-.32-.45-.77-.9-1.03-1.35-.65-.9-1.29-1.87-2.32-2.45-1.03-.71-2.06-1.42-3.35-1.81-1.48-.45-2.9-1.03-4.38-1.48-1.03-.26-2-.45-2.97-.64-.32-.06-.9,.39-.9,.77v1.48c0,.71-.13,1.35-.13,2,0,1.48,.13,2.9,.13,4.38,0,1.87-.06,3.8-.13,5.67,0,.39,.13,.77,.13,1.22v3.87h.13c0,.52-.06,1.1,0,1.61,.39,4,.71,7.99,1.1,12.06,.06,.84,.06,1.74,1.03,2.19,.39,.26,.84,.45,1.29,.64,.06,.06,.19,0,.32,0,.64,.06,1.22,0,1.81-.26,.26-.19,.58-.19,.77-.45,.58-.39,1.03-.9,1.61-1.35,.77-.64,1.48-1.48,2.13-2.26,.52-.58,.97-1.29,1.35-2.06,.84-1.55,1.61-3.16,2.39-4.77,.52-.97,.58-2.19,1.55-3.03,.32-.32,.45-.9,.58-1.35,.19-.58,.39-1.16,.52-1.81,.26-.9,.39-1.8,.32-2.77,0-.13,.06-.26,0-.39Zm-4.45,3.93c-.06,.39,0,.77,0,1.16-.06,1.1-.58,2.06-.9,3.09-.64,1.87-1.48,3.61-2.51,5.35-.52,.84-1.16,1.61-1.8,2.45,0,.13-.13,.19-.26,.26-.45,.32-.58,.19-.64-.32-.13-1.61-.26-3.22-.39-4.84,0-.39,.13-.84,.06-1.16,0-.97-.06-1.87-.06-2.77-.06-2.06,0-4.13,0-6.19-.06-.9-.06-1.81-.13-2.77,0-.71,.06-1.48,.06-2.19,0-1.35-.06-2.77,0-4.06,0-.97,.06-1.87,.13-2.84v-1.1c0-.19,.13-.32,.32-.19,1.1,.39,2,.9,2.58,1.93,.39,.64,.84,1.16,1.23,1.68,.64,.77,1.16,1.61,1.42,2.58,.32,.97,.58,1.87,.84,2.84,.32,1.03,.39,2.19,.45,3.35-.19,1.23-.26,2.51-.39,3.74Z"></path><path class="cls-1" d="M55.13,26.09c-.19-.71-.32-1.42-.58-2.06-.39-.9-.84-1.74-1.22-2.58-.71-1.35-1.74-2.39-2.97-3.16-1.16-.71-2.39-1.16-3.55-1.68-.19-.13-.39-.26-.52-.45,.06-.06,.26-.19,.39-.32l.06-.06c.97-.77,1.93-1.68,2.51-2.77,.39-.64,.71-1.29,.97-2.06,.19-.9,.26-1.8,.26-2.77-.06-.97-.39-1.87-1.29-2.45-.64-.39-1.29-.52-2-.71-1.35-.52-2.77-.64-4.19-.52-1.03,.06-2.06,.19-2.9,.77-.32,.26-.65,.26-.97,.26-.58-.26-1.22-.26-1.8-.06-.39,.13-.97,0-.9,.64,0,.06-.06,.13-.13,.13-.39,.06-.32,.32-.32,.58s0,.58-.06,.9c-.07,.97-.19,1.93-.26,2.97-.06,1.74-.13,3.48-.13,5.22v8.7c.06,1.1,.13,2.26,.26,3.35,.26,2,.58,4,.9,5.93,.06,.45,.13,.77,.26,1.16,.13,.52,.39,.97,.52,1.48,.19,.65,.39,1.23,.64,1.87,.19,.39,.39,.77,.9,.71,.19,0,.39,.19,.64,.19,.13,0,.32,.06,.52,0,.32,0,.64-.32,1.03-.19,.06,0,.19-.06,.19-.06,.26-.32,.58-.32,.9-.39,.64-.13,1.22,0,1.8,.13,.71,.06,1.42,.26,2.06,.39,.97-.06,1.74-.39,2.45-.97,.06-.13,.32-.19,.45-.26,.45-.26,.9-.64,1.48-.64,0,0,.06-.06,.13-.06,.52-.39,1.1-.77,1.48-1.29,.65-.9,1.35-1.8,1.93-2.71,.06-.06,.06-.13,.13-.13,.77-.58,1.03-1.55,1.29-2.39,.13-.64,.13-1.42,.13-2.06-.13-.9-.32-1.74-.52-2.58Zm-13.93-17.15c0-.64,.06-1.35,.13-2.06,0-.13,.19-.32,.39-.45,.71-.45,1.55-.58,2.38-.58h.26c1.1-.13,.97,.06,.97,.77,0,1.42-.32,2.71-1.03,3.8-.9,1.35-1.87,2.58-2.84,3.87-.06,.06-.19,.13-.26,.19,0-.13-.06-.19-.06-.32-.06-.45-.06-.97-.06-1.42,.06-1.29,.06-2.51,.13-3.8Zm8.7,23.4c-.45,1.23-1.16,2.32-2,3.22-.52,.64-1.03,1.16-1.61,1.68-.32,.39-.71,.52-1.22,.52-.52-.06-.9,0-1.35,0-.64,0-.9-.26-.9-.9,.06-.58,0-1.16-.06-1.68-.19-1.35-.45-2.64-.64-4-.19-1.22-.39-2.45-.52-3.74-.13-1.1-.13-2.26-.19-3.35,0-.39,0-.71-.06-1.03,0-.97-.06-1.8-.13-2.77,0-.65-.06-1.35-.13-2.06-.06-.39,.06-.45,.45-.32h1.74c.52-.06,.9-.06,1.29,.13,1.1,.45,1.93,1.16,2.58,2.13,.39,.58,.77,1.1,1.1,1.8,.39,.58,.58,1.29,.84,1.93,.64,1.55,1.1,3.09,1.29,4.71,0,.26,.06,.52,.06,.84h.06c-.19,.97-.26,1.93-.58,2.9Z"></path><path class="cls-1" d="M73.69,41.24c0,.84-1.03,1.16-1.8,1.16-1.87,0-2.06-3.09-2.06-5.09v-1.35c0-.19-.06-.26-.06-.52s.06-.58,.06-.9c0-.13-.06-.64-.39-.64-.97,0-2.06,.77-3.22,.77-2.58,0-3.55-.26-6.06-1.68-.26-.13-.39-.32-.39-.58,0-9.28,.77-17.79,1.55-27.27,.26-2.64,0-4.32,2.32-4.32,1.68,0,3.09,.64,3.09,2.71,0,.19-.06,.45-.06,.58,0,.58,.19,1.22,.19,1.87,0,1.35-.26,2.9-.26,4.13v.58c0,2.13-.39,3.8-.39,5.42v.32c0,3.03-.58,5.35-.58,6.77,0,.45,.06,1.1,.06,1.48-.19,.64-.19,1.42-.19,2.13v1.1c0,.32,.06,.84,.06,1.23-.13,.39-.13,.64-.13,.97,0,.52,.06,1.03,.06,1.48v.52c.13,.45,.45,.52,.84,.52h.19c1.23,0,3.22-.32,3.22-1.16,0-2-.32-6.28-.32-8.28,0-.71,.39-1.1,1.87-1.1,1.23,0,1.55,1.57,1.55,1.57,0,0,.19,7.93,.84,7.93,1.29,0,2.58-.45,3.8-.45,.45,0,1.29,.26,1.29,.64,0,1.1-4.32,1.42-4.51,1.42-.9,0-1.03,.77-1.03,1.55v.71c0,2,.45,3.87,.45,5.8Z"></path><path class="cls-1" d="M78.27,11.91c-.06-1.16-.13-2.39-.13-3.67,0-.84,0-1.74,.19-2.58,.06-.77,.58-1.03,1.35-1.03,.39,0,.77-.19,1.16-.19,.71,.06,1.48,.19,2.19,.32,.52,.13,.9,.64,.9,1.16-.06,.77-.06,1.55-.13,2.32v4.84c0,.06,.06,.13,.06,.19,.13,.39,.19,.45,.58,.19,.52-.32,.97-.84,1.48-1.22,.39-.32,.71-.58,1.1-.9,.97-.9,1.74-2,2.51-3.09,.45-.58,.97-1.16,1.22-1.87,.26-.45,.45-.97,.39-1.48-.06-.45,.06-.9,.64-1.1,.13-.06,.26-.19,.32-.39,.26-.32,.52-.39,.97-.32,.19,.13,.45,.26,.64,.26,.77,.26,1.16,1.03,.84,1.81-.26,.58-.52,1.22-.77,1.8-.06,.06-.06,.19-.13,.19-.71,.52-.97,1.29-1.48,1.93-.39,.58-.77,1.16-1.42,1.42-.06,.06-.13,.06-.19,.13-.84,1.16-2,1.81-3.16,2.58-.32,.26-.71,.52-1.03,.84-.06,.13-.13,.32-.13,.39,.06,.13,.26,.19,.39,.19,1.48,.19,2.84,.52,3.87,1.68,.45,.52,.97,.9,1.42,1.35,.39,.45,.71,.9,1.03,1.42,.39,.58,.77,1.29,1.16,1.93,.52,.9,1.03,1.8,1.48,2.77,.39,.97,.77,2,1.16,2.97,.19,.32,.32,.64,.45,.97,.52,1.1,1.03,2.06,1.35,3.16,.39,1.55,.64,3.09,.9,4.64,.06,.32,0,.84-.52,.84-.39,.77-1.1,.65-1.74,.77-1.23,.19-2.39-.45-2.71-1.61-.32-1.1-.58-2.26-.84-3.29-.19-.77-.45-1.48-.84-2.06-.26-.39-.39-.77-.58-1.16-.77-1.81-1.55-3.61-2.38-5.35-.77-1.74-1.87-3.22-2.9-4.84-.52-.77-.97-1.74-1.74-2.45-.13-.13-.32-.39-.52-.45-.19-.13-.45-.13-.65-.06-.13,.06-.19,.32-.19,.45,.06,1.42,.13,2.77,.19,4.19,.06,1.42,.26,2.9,.32,4.26,.19,1.93,.19,3.87,.39,5.8,.13,1.61,.32,3.22,.58,4.77,0,.64-.13,1.03-.64,1.29-.19,.13-.39,.32-.52,.39-.19,.13-.45,.13-.65,.26-.19,.06-.32,0-.45,.13-.45,.39-1.03,.26-1.55,.26-.32,0-.64-.39-.9-.64-.45-.52-.58-1.1-.65-1.68-.06-1.48-.26-2.9-.32-4.38-.19-2-.32-4-.52-5.93-.26-2.58-.52-5.03-.71-7.54h.13c-.13-1.87-.19-3.67-.32-5.54Z"></path></svg> 