<svg id="Слой_1" xmlns="http://www.w3.org/2000/svg" width="178.5" height="43.9" viewBox="0 0 178.5 43.9">
    <style>.st0{fill:#6d6968}</style>
    <path class="st0"
          d="M6.8 41c-.1 0-.1.1-.2.3-.1.5-.2.9-.4 1.3-.2.3-.4.6-.8.8-.3.2-.7.3-1.1.3-.8 0-1.4-.3-1.9-.9-.5-.7-.8-1.7-.8-3 0-1.5.3-2.6 1-3.3.4-.4.9-.6 1.5-.6.8 0 1.4.3 1.8.9.2.3.3.8.4 1.4 0 .1.1.2.2.2h.1v-.3c0-1 0-1.7.1-2.1v-.2c0-.1 0-.1-.1-.1s-.1.1-.2.3c-.1.1-.1.2-.2.2s-.2-.1-.4-.2c-.4-.2-.6-.3-.9-.4-.2-.1-.6-.1-1-.1-1.1 0-2 .4-2.7 1.2-.7.8-1 1.8-1 3s.4 2.2 1.1 3c.8.8 1.7 1.2 2.9 1.2.8 0 1.5-.2 2-.7.1.1.2.2.3.5 0 .1.1.2.2.2s.1-.1.1-.2v-2.5c.1-.2.1-.2 0-.2m20.6-1.3c0-1.2-.4-2.2-1.1-3-.7-.8-1.6-1.2-2.6-1.2-1.1 0-2 .4-2.7 1.2-.7.8-1.1 1.8-1.1 3s.4 2.2 1.1 3c.7.8 1.6 1.2 2.7 1.2 1 0 1.9-.4 2.6-1.2.8-.8 1.1-1.8 1.1-3m-1.3.1c0 1.2-.2 2.2-.6 2.9-.4.7-.9 1-1.7 1-.8 0-1.4-.3-1.9-1-.4-.7-.7-1.7-.7-2.9 0-1.6.3-2.7.9-3.4.3-.4.8-.6 1.5-.6s1.2.3 1.5.8c.7.6 1 1.8 1 3.2m20.4 2.6v-.6c0-.1 0-.2-.1-.2s-.1.1-.1.2c0 .4-.1.8-.2 1-.1.3-.4.4-.8.5-.4.1-1 .1-1.9.1h-.9v-6.9c0-.3 0-.5.1-.6 0-.1.2-.1.4-.1h.4s.1 0 .1-.1-.1-.1-.2-.1h-2.8c-.1 0-.1 0-.1.1s.1.1.2.1c.4 0 .6 0 .6.1.1 0 .1.2.1.5V43c0 .2 0 .4-.1.4-.1.1-.2.1-.5.1-.2 0-.3.1-.3.1 0 .1.1.1.2.1h5.9v-1.3zm18.6 0v-.6c0-.1 0-.2-.1-.2s-.1.1-.1.2c0 .4-.1.8-.2 1-.1.3-.4.4-.8.5-.4.1-1 .1-1.9.1h-.9v-6.9c0-.3 0-.5.1-.6 0-.1.2-.1.4-.1h.4s.1 0 .1-.1-.1-.1-.2-.1h-2.6c-.1 0-.1 0-.1.1s.1.1.2.1c.4 0 .6 0 .6.1.1 0 .1.2.1.5V43c0 .2 0 .4-.1.4-.1.1-.2.1-.5.1-.2 0-.3.1-.3.1 0 .1.1.1.2.1h5.9v-1.3h-.2zm18.7-.8c-.1 0-.1.1-.2.3-.1.9-.4 1.4-.9 1.5-.3.1-1.3.1-3 .1v-3.9h.5c.6 0 1 0 1.1.1.3.1.5.4.6.9 0 .4.1.6.1.6 0 .1.1.1.1.1.1 0 .1-.1.1-.2V38c0-.1 0-.2-.1-.2s-.1.1-.1.2c-.1.6-.2 1-.4 1.2-.2.1-.7.2-1.6.2h-.3V36h1c1.1 0 1.7.1 2 .2.3.2.6.6.7 1.3 0 .2.1.3.2.3s.1 0 .1-.1V37c-.1-.6-.1-1.1-.1-1.4h-5.5c-.2 0-.3 0-.3.1s.1.1.2.1c.4 0 .6 0 .6.1.1 0 .1.2.1.4v6.6c0 .3 0 .5-.1.6 0 .1-.2.1-.4.1h-.4s-.1 0-.1.1.1.1.2.1h1.4c2.3 0 3.8 0 4.5.1v-2c.1-.2.1-.3 0-.3m19.4-.6c-.1 0-.1.1-.2.3-.1.5-.2.9-.4 1.3-.2.3-.4.6-.8.8-.3.2-.7.3-1.1.3-.8 0-1.4-.3-1.9-.9-.5-.8-.8-1.8-.8-3.1 0-1.5.3-2.6 1-3.3.4-.4.9-.6 1.5-.6.8 0 1.4.3 1.8.9.2.3.3.8.4 1.4 0 .1.1.2.2.2h.1V38c0-1 0-1.7.1-2.1v-.2c0-.1 0-.1-.1-.1s-.1.1-.2.3c-.1.1-.1.2-.2.2s-.2-.1-.4-.2c-.4-.2-.6-.3-.9-.4-.2-.1-.6-.1-1-.1-1.1 0-2 .4-2.7 1.2-.7.8-1 1.8-1 3s.4 2.2 1.1 3c.8.8 1.7 1.2 2.8 1.2.8 0 1.5-.2 2-.7.1.1.2.2.3.5 0 .1.1.2.2.2s.1-.1.1-.2v-2.5c.2-.1.2-.1.1-.1m19.4-3.4c-.1 0-.1 0 0 0-.1-.9-.1-1.6-.2-2h-6.1c0 .6-.1 1.1-.1 1.4v.6c0 .2 0 .2.1.2s.1-.1.2-.3c.1-.8.4-1.3.9-1.4.2-.1.7-.1 1.4-.1v7c0 .3 0 .4-.1.5-.1.1-.2.2-.5.2s-.5 0-.5.1.1.1.3.1h2.8c.1 0 .2 0 .2-.1s0-.1-.1-.1c-.4 0-.6 0-.7-.1-.1-.1-.2-.2-.2-.5V36h.7c.1 0 .3 0 .6.1.4.1.6.2.8.5.1.2.2.4.3.7v.4c0 .2.1.3.2.3-.1-.1 0-.2 0-.4 0 .1 0 .1 0 0m15.4 5.9c-.4 0-.7-.1-.8-.2 0 0-.1-.3-.1-.7v-6.3c0-.3 0-.4.1-.5 0-.1.2-.1.4-.1.3 0 .5-.1.5-.1 0-.1-.1-.1-.2-.1h-2.7c-.1 0-.1 0-.1.1 0 0 .1.1.2.1.4 0 .6.1.7.1 0 0 .1.3.1.6v6.2c0 .4 0 .6-.1.7-.1.1-.2.1-.6.1-.2 0-.3 0-.3.1s.1.1.2.1h2.8c.1 0 .1 0 .1-.1 0 .1-.1 0-.2 0m20.5-3.8c0-1.2-.4-2.2-1.1-3-.7-.8-1.6-1.2-2.6-1.2-1.1 0-2 .4-2.7 1.2-.7.8-1.1 1.8-1.1 3s.4 2.2 1.1 3c.7.8 1.6 1.2 2.7 1.2 1 0 1.9-.4 2.6-1.2.7-.8 1.1-1.8 1.1-3m-1.3.1c0 1.2-.2 2.2-.6 2.9-.4.7-.9 1-1.7 1-.8 0-1.4-.3-1.9-1-.4-.7-.7-1.7-.7-2.9 0-1.6.3-2.7.9-3.4.3-.4.8-.6 1.5-.6s1.2.3 1.5.8c.7.6 1 1.8 1 3.2m21.1-4.2h-1.9c-.2 0-.3 0-.3.1s.1.1.4.1h.6c.1 0 .1.1.1.1v5.6l-4-6h-2c-.1 0-.2 0-.2.1s.1.1.3.1c.3 0 .5 0 .7.1.3.2.4.6.4 1.2v6c0 .3 0 .4-.1.5-.1.1-.3.1-.8.1-.2 0-.2 0-.2.1s.1.1.3.1h2.1c.2 0 .3 0 .3-.1s-.1-.1-.2-.1c-.4 0-.7 0-.8-.1-.1 0-.2-.1-.2-.2v-6.6c1.2 1.9 2.3 3.5 3.2 4.8l1.5 2.2c.1.1.1.1.2.1 0 0 .1 0 .1-.1v-7.8s.1-.1.2-.1h.5c.2 0 .3 0 .3-.1s-.3-.1-.5-.1M24.6 23.5L15.7 0H9.1L0 23.5h6.5l1.6-4.1h8.4l1.5 4.1h6.6zm-9.7-8.7H9.8l2.5-7.5h.1l2.5 7.5zM45.1 0H39v23.5h13.4v-5.1h-7.3V0zm44.3 23.5L80.5 0h-6.7l-9.1 23.5h6.5l1.6-4.1h8.4l1.5 4.1h6.7zm-9.7-8.7h-5.1l2.5-7.5h.1l2.5 7.5zm24.1 8.7h6.1V9.1h.1l11.2 14.4h6.1V0h-6.1v14.4h-.1L109.9 0h-6.1v23.5zM172.2 0v15.5c0 1.3.1 3.5-1.7 3.5-.8 0-1.8-1.1-2.5-2l-3.5 3.7c1.4 2.2 3.4 3.5 6.1 3.5 5.2 0 7.8-3.3 7.8-8.3V0h-6.2z"/>
</svg>