<svg id="Слой_1" xmlns="http://www.w3.org/2000/svg" width="175.1" height="33.9" viewBox="0 0 175.1 33.9">
    <style>.st0{fill:#6d6968}</style>
    <path class="st0"
          d="M19.5 21.9c-.8-4.6-4.8-8.2-9.7-8.2-4.9 0-8.9 3.5-9.7 8.2h19.4zM0 24.5c.5 5 4.6 9 9.8 9 5.2 0 9.3-4 9.8-9H0zm58.2-2.6c-.8-4.6-4.8-8.2-9.7-8.2-4.9 0-8.9 3.5-9.7 8.2h19.4zm-19.5 2.6c.5 5 4.6 9 9.8 9 5.2 0 9.3-4 9.8-9m60.1-2.6c-.8-4.6-4.8-8.2-9.7-8.2-4.9 0-8.9 3.5-9.7 8.2h19.4zm-19.5 2.6c.5 5 4.6 9 9.8 9 5.2 0 9.3-4 9.8-9H98.9zM30 0h-3.2v33.3H30V0zm38 14.3h-3.2v19H68v-9.8c0-2.9.4-6.7 4.2-6.7 3.1 0 3.4 3.4 3.4 5.7v10.8h3.2v-10c0-2.9.4-6.5 4.1-6.5 3.3 0 3.5 3 3.5 5.5v11h3.2V21.8c0-4-1.2-8-6.1-8-2.3 0-4.6 1.1-5.7 3.2-1-2-3-3.2-5.3-3.2-1.9 0-3.6 1-4.6 2.6h.1v-2.1zm59.9 0h-3.2v19h3.2v-9c0-3.4.3-7.5 4.7-7.5 3.8 0 4 2.7 4 5.8v10.7h3.2V22.1c0-4.4-1.2-8.2-6.5-8.2-2.3 0-4.1 1-5.4 2.8h-.1v-2.4h.1zm25.4 3h3.4v-3h-3.4V7.5h-3.2v6.8h-2v3h2v16h3.2v-16zm20.6 0c-.8-2-2.9-3.5-5-3.5-3.1 0-5.7 2.2-5.7 5.4 0 6 8.6 4.5 8.6 8.8 0 1.7-1.3 2.9-3.1 2.9-2.1 0-3.1-1.3-3.9-3L162 29c1 3 3.5 4.8 6.7 4.8 3.5 0 6.4-2.6 6.4-6.2 0-3.2-2.2-4.5-4.4-5.5-2.2-.9-4.4-1.6-4.4-3.3 0-1.2 1.2-2.1 2.3-2.1 1.2 0 2.1.9 2.6 1.9l2.7-1.3z"/>
</svg>