<svg id="Слой_1" xmlns="http://www.w3.org/2000/svg" width="232.9" height="56.7" viewBox="0 0 232.9 56.7">
    <style>.st0{fill:#666}</style>
    <path class="st0"
          d="M74.4 40.1c-.2-1-.3-2-.3-3v-4.7c0-.5 0-1.9-.8-2.9-1.2-1.3-3.2-1.5-4.2-1.5-1.1 0-2.5.2-3.6 1-1.2.9-1.3 2.1-1.3 2.8h3.4c0-.3 0-.6.3-1s.8-.7 1.3-.7c.3 0 1.2.1 1.5 1 .1.4.2.8.2 1.6-1.1 0-3.2 0-4.7.6-2.2 1-2.5 2.7-2.5 3.7 0 .9.3 1.9 1 2.6.5.4 1.2.9 2.9.9.7 0 2.2 0 3.5-1.9 0 .3 0 .9.1 1.6h3.2v-.1zm-3.6-5.6c0 1.3 0 2.2-.7 2.9-.3.4-.8.7-1.5.7-1.1 0-1.7-.9-1.7-1.7.1-1.3 1.7-2 3.9-1.9m18.1-4.7c-.3-.4-1.2-1.6-3.3-1.6-3.1 0-5.2 2.4-5.2 6.3 0 3.7 1.9 5.8 5 5.8.5 0 1.4 0 2.3-.6.7-.5 1-.9 1.2-1.3l.1 1.7h3.5c0-.4-.1-1.2-.1-1.9V23.3h-3.5v6.5zm-5 4.6c0-1.2.3-4 2.6-4 1.6 0 2.6 1.3 2.6 3.6 0 .6 0 1.8-.6 2.8-.4.7-1.2 1.3-2.2 1.3-1.8 0-2.4-1.8-2.4-3.7m15.3-8.1h3.7v-3h-3.7v3zm.1 13.8h3.4V28.3h-3.4v11.8zm10.5 0h3.5v-6.9c0-.9.2-1.5.4-1.8.4-.6 1-.9 1.8-.9.9 0 1.4.5 1.7 1 .2.4.2.8.2 1.3v7.3h3.5v-6.4c0-2.2-.1-2.8-.3-3.5-.3-.8-1.3-2.2-3.6-2.2-2.6 0-3.5 1.5-3.8 2l-.1-1.8h-3.3c.1.8.1 2.1.1 2.1v9.8h-.1zm29.9-3.1c0 1.6-.2 3.5 2.8 3.5.5 0 1-.1 1.4-.2V39c-.4.1-.8.1-1.2.1-1.1 0-1.6-.6-1.6-1.7v-7.8h2.7v-1.3H141v-3.1l-1.4.6v2.5h-2.3v1.3h2.3V37h.1zm12.1-13.7h-1.4v16.8h1.4v-6.7c0-2.1 1-4 3.4-4 1.9 0 3.1 1.2 3.1 3.2v7.5h1.4v-7.3c0-1.3-.3-4.7-4.1-4.7-1.5 0-2.8.7-3.7 2.1v-6.9h-.1zm24 10.9c0 2.2-1.1 4.9-3.9 4.9s-3.9-2.7-3.9-4.9 1.1-4.9 3.9-4.9 3.9 2.8 3.9 4.9m-3.9-6.1c-3.7 0-5.4 3.1-5.4 6.2s1.7 6.2 5.4 6.2 5.4-3.1 5.4-6.2-1.7-6.2-5.4-6.2m13.5.3H184c0 .8.1 1.7.1 2.6v9h1.4v-6.7c0-2.1 1-4 3.4-4 1.9 0 3.1 1.2 3.1 3.2V40h1.4v-6.7c0-2.1 1-4 3.4-4 1.9 0 3.1 1.2 3.1 3.2V40h1.4v-7.3c0-1.3-.3-4.7-4.1-4.7-1.8 0-3.2 1.2-4 2.6-.5-1.5-2-2.6-3.8-2.6-1.5 0-2.8.7-3.7 2.1l-.3-1.7zm23.9 8.4c0-2.9 4.1-2.6 6.1-2.6.1 2.4-.4 5-3.5 5-1.4 0-2.6-.8-2.6-2.4m6.1-3.9c-1.7.1-3.7-.1-5.3.5-1.4.6-2.3 1.8-2.3 3.4 0 2.3 1.7 3.6 3.9 3.6 1.6 0 3.1-.9 3.7-1.9l.1-.2V40h1.4c0-.8-.1-1.7-.1-2.6v-5.5c0-2.7-1.6-3.9-4.1-3.9-2.2 0-4 .9-4.4 3.3h1.5c.2-1.6 1.4-2 2.9-2 1.7 0 2.6.6 2.8 2.5v1.1h-.1zm8.6-1.6c0 2.2 1.9 2.7 3.7 3.1 1.9.4 3.7.7 3.7 2.4 0 1.6-1.6 2.3-3 2.3-1.6 0-3.1-.5-3.2-2.3h-1.5c0 2.6 2.4 3.5 4.4 3.5 2.5 0 4.9-1.2 4.9-3.8 0-1.3-.8-2.3-2-2.7-3.2-1.1-5.4-1-5.4-2.7 0-1.4 1.3-1.9 2.6-1.9 1.4 0 2.7.5 2.9 2h1.5c-.2-2.5-2-3.2-4.3-3.2-2.1.1-4.3.9-4.3 3.3M21.7 0L.7 13.2v6.5l21-11.1 21.1 10.8v-6.2L21.7 0zM0 32.9v6.6l21.7-10.9 21 11.2.4-6.6-21.7-12.8L0 32.9z"/>
    <path class="st0" d="M.3 49.8v6.5L22 45.5l21 11.2.4-6.6-21.7-12.8L.3 49.8z"/>
</svg>