<svg id="Слой_1" xmlns="http://www.w3.org/2000/svg" width="179.8" height="33.8" viewBox="0 0 179.8 33.8">
    <style>.st0{fill:#6d6968}</style>
    <path class="st0"
          d="M.2 28.6c.5-.6.8-1.3 1.3-1.9.4-.6 1.1-.8 1.6-.4.3.2 3.9 3.2 7.5 3.2 3.2 0 5.3-2 5.3-4.4 0-2.8-2.4-4.6-7.1-6.5C4 16.6.2 14.1.2 8.6.2 5 3 0 10.5 0c4.7 0 8.2 2.4 8.7 2.8.4.2.8.9.3 1.6l-1.2 1.8c-.4.6-1 .9-1.6.5-.3-.2-3.6-2.3-6.3-2.3C6.4 4.3 5 6.8 5 8.5c0 2.7 2.1 4.3 6 5.9 5.4 2.2 10.1 4.8 10.1 10.5 0 4.9-4.4 8.9-10.5 8.9-5.7 0-9.3-3-10.1-3.7-.4-.4-.7-.7-.3-1.5M45 4.9h-7.7c-.5 0-.9-.4-.9-.9V1.4c0-.5.4-.9.9-.9h20.2c.5 0 .9.4.9.9V4c0 .5-.4.9-.9.9h-7.7v27.6c0 .5-.4.9-.9.9h-3.1c-.5 0-.9-.4-.9-.9V4.9h.1zm84.9 0h-7.7c-.5 0-.9-.4-.9-.9V1.4c0-.5.4-.9.9-.9h20.2c.5 0 .9.4.9.9V4c0 .5-.4.9-.9.9h-7.7v27.6c0 .5-.4.9-.9.9h-3.1c-.5 0-.9-.4-.9-.9V4.9h.1zm29.3-3.5c0-.5.4-.9.9-.9h18.8c.5 0 .9.4.9.9V4c0 .5-.4.9-.9.9H164v9.6h12.5c.5 0 .9.4.9.9V18c0 .5-.4.9-.9.9H164V29h14.8c.5 0 .9.4.9.9v2.6c0 .5-.4.9-.9.9H160c-.5 0-.9-.4-.9-.9V1.4h.1zM73.7 32c0 .8-.6 1.4-1.4 1.4-.8 0-1.4-.6-1.4-1.4 0-.8.6-1.4 1.4-1.4.8 0 1.4.6 1.4 1.4m7.1 0c0 .8-.6 1.4-1.4 1.4-.8 0-1.4-.6-1.4-1.4 0-.8.6-1.4 1.4-1.4.7 0 1.4.6 1.4 1.4m7 0c0 .8-.6 1.4-1.4 1.4-.8 0-1.4-.6-1.4-1.4 0-.8.6-1.4 1.4-1.4.8 0 1.4.6 1.4 1.4m7.1 0c0 .8-.6 1.4-1.4 1.4-.8 0-1.4-.6-1.4-1.4 0-.8.6-1.4 1.4-1.4.7 0 1.4.6 1.4 1.4m7 0c0 .8-.6 1.4-1.4 1.4-.8 0-1.4-.6-1.4-1.4 0-.8.6-1.4 1.4-1.4.8 0 1.4.6 1.4 1.4m7.1 0c0 .8-.6 1.4-1.4 1.4-.8 0-1.4-.6-1.4-1.4 0-.8.6-1.4 1.4-1.4.8 0 1.4.6 1.4 1.4m-3.5-6.1c0 .8-.6 1.4-1.4 1.4s-1.4-.6-1.4-1.4c0-.8.6-1.4 1.4-1.4s1.4.6 1.4 1.4m-3.6-6.1c0 .8-.6 1.4-1.4 1.4-.8 0-1.4-.6-1.4-1.4s.6-1.4 1.4-1.4c.8-.1 1.4.6 1.4 1.4m-3.5-6.1c0 .8-.6 1.4-1.4 1.4-.8 0-1.4-.6-1.4-1.4 0-.8.6-1.4 1.4-1.4.8-.1 1.4.6 1.4 1.4m-3.5-6.2c0 .8-.6 1.4-1.4 1.4-.8.1-1.5-.6-1.5-1.4 0-.8.6-1.4 1.4-1.4.8 0 1.5.7 1.5 1.4m-3.5-6.1c0 .8-.6 1.4-1.4 1.4s-1.4-.6-1.4-1.4c0-.8.6-1.4 1.4-1.4s1.4.6 1.4 1.4m-3.6 6.1c0 .8-.6 1.4-1.4 1.4-.8 0-1.4-.6-1.4-1.4s.6-1.4 1.4-1.4c.8 0 1.4.7 1.4 1.4m7.1 12.3c0 .8-.6 1.4-1.4 1.4-.8 0-1.4-.6-1.4-1.4 0-.8.6-1.4 1.4-1.4.7-.1 1.4.6 1.4 1.4m-7.1 0c0 .8-.6 1.4-1.4 1.4-.8 0-1.4-.6-1.4-1.4 0-.8.6-1.4 1.4-1.4.8-.1 1.4.6 1.4 1.4m-3.5-6.1c0 .8-.6 1.4-1.4 1.4-.8 0-1.4-.6-1.4-1.4 0-.8.6-1.4 1.4-1.4.7-.1 1.4.6 1.4 1.4m7.1 0c0 .8-.6 1.4-1.4 1.4s-1.4-.6-1.4-1.4c0-.8.6-1.4 1.4-1.4s1.4.6 1.4 1.4m7 12.2c0 .8-.6 1.4-1.4 1.4-.8 0-1.4-.6-1.4-1.4 0-.8.6-1.4 1.4-1.4.8 0 1.4.6 1.4 1.4m-14.1 0c0 .8-.6 1.4-1.4 1.4-.8 0-1.4-.6-1.4-1.4 0-.8.6-1.4 1.4-1.4.7 0 1.4.6 1.4 1.4m7.1 0c0 .8-.6 1.4-1.4 1.4s-1.4-.6-1.4-1.4c0-.8.6-1.4 1.4-1.4s1.4.6 1.4 1.4m-10.6-6.1c0 .8-.6 1.4-1.4 1.4-.8 0-1.4-.6-1.4-1.4 0-.8.6-1.4 1.4-1.4.7-.1 1.4.6 1.4 1.4m-3.6 6.1c0 .8-.6 1.4-1.4 1.4-.8 0-1.4-.6-1.4-1.4 0-.8.6-1.4 1.4-1.4.8 0 1.4.6 1.4 1.4"/>
</svg>