<svg id="Слой_1" xmlns="http://www.w3.org/2000/svg" xmlns:xlink="http://www.w3.org/1999/xlink" width="180.4"
     height="65.4" viewBox="0 0 180.4 65.4">
    <style>.st0{clip-path:url(#SVGID_1_)}.st0,.st1{fill:#6d6968}</style>
    <defs>
        <path id="SVGID_3_" d="M0 65.4h180.4V0H0v65.4z"/>
    </defs>
    <clipPath id="SVGID_1_">
        <use xlink:href="#SVGID_3_" overflow="visible"/>
    </clipPath>
    <path class="st0"
          d="M8.1 11.4c-1.3-.6-2.2-1.2-2.9-1.9-.6-.8-.9-1.6-.9-2.6 0-1.2.4-2.2 1.2-2.9.8-.8 1.8-1.2 3.1-1.2 1 0 1.9.3 2.6.8.8.5 1.5 1.3 2.2 2.4l2.8-1.8c-.7-1.4-1.7-2.4-2.9-3.2-1.3-.6-2.8-1-4.4-1-2.3 0-4.2.7-5.7 2S1 4.9 1 6.9c0 1.7.5 3.2 1.4 4.4.9 1.2 2.3 2.2 4.2 3l3.4 1.5c1.5.6 2.5 1.4 3.3 2.3.7.9 1.1 2 1.1 3.3 0 1.5-.5 2.8-1.6 3.8-1 1-2.4 1.4-4.1 1.4-1.4 0-2.6-.4-3.5-1.3-.9-.9-1.6-2.2-2-3.9l-3 1.5c.5 2.1 1.5 3.7 3 4.8 1.5 1.1 3.3 1.7 5.6 1.7 2.7 0 4.9-.8 6.5-2.4 1.6-1.6 2.5-3.7 2.5-6.2 0-1.8-.5-3.3-1.4-4.6-.9-1.3-2.3-2.3-4.1-3.1l-4.2-1.7zM56.6 3c-1.5-1-3-1.8-4.5-2.3C50.6.2 49 0 47.4 0c-2.1 0-4 .3-5.7 1-1.7.7-3.3 1.7-4.7 3.1-1.5 1.4-2.6 3.1-3.3 4.8-.7 1.8-1.1 3.7-1.1 5.9 0 2.5.5 4.8 1.6 6.8 1.1 2.1 2.6 3.8 4.7 5.2 1.2.8 2.5 1.5 3.9 1.9 1.4.4 2.8.7 4.3.7 1.7 0 3.4-.3 5-.8s3.1-1.3 4.5-2.3V22c-1.3 1.5-2.7 2.6-4.2 3.3-1.5.7-3.2 1.1-5 1.1-1.9 0-3.7-.4-5.3-1.3-1.6-.9-3-2.1-4.2-3.7-.6-.9-1.1-1.9-1.4-3-.3-1.1-.5-2.3-.5-3.6 0-1.7.3-3.2.8-4.6.5-1.4 1.3-2.6 2.4-3.7 1-1.1 2.3-1.9 3.7-2.5 1.4-.6 2.9-.9 4.3-.9 1.8 0 3.5.3 5 1s3 1.8 4.3 3.2V3h.1zm26.8 22.5c-1.4-.6-2.6-1.4-3.8-2.5-1.1-1.1-2-2.4-2.5-3.8-.6-1.4-.9-2.9-.9-4.4 0-1.6.3-3.1.9-4.5.6-1.4 1.4-2.7 2.5-3.8C80.8 5.4 82 4.6 83.4 4c1.4-.6 2.9-.9 4.4-.9 1.5 0 3 .3 4.4.9 1.4.6 2.6 1.4 3.7 2.5s1.9 2.3 2.5 3.8c.6 1.4.9 2.9.9 4.5s-.3 3-.9 4.4c-.6 1.4-1.4 2.6-2.5 3.7s-2.4 2-3.8 2.5c-1.4.6-2.8.9-4.4.9-1.4 0-2.9-.2-4.3-.8m18.3-16.4c-.7-1.8-1.8-3.4-3.2-4.7-1.4-1.4-3-2.4-4.9-3.2C91.7.4 89.8 0 87.8 0s-3.9.4-5.7 1.1c-1.8.7-3.5 1.8-4.9 3.2-1.4 1.4-2.5 3-3.3 4.8-.7 1.8-1.1 3.7-1.1 5.7s.4 3.9 1.1 5.7c.7 1.8 1.8 3.4 3.3 4.8 1.4 1.4 3 2.4 4.9 3.2 1.8.7 3.7 1.1 5.7 1.1s3.9-.4 5.7-1.1c1.8-.7 3.5-1.8 4.9-3.2 1.4-1.4 2.5-3 3.2-4.7.7-1.8 1.1-3.7 1.1-5.7.1-2.2-.2-4.1-1-5.8M123.4.7h-3.3v28.1h3.3V.7zm22 0H142v28.1h3.3V.7h.1zM3.3 64.7V50.6h14.9v14.1h3.4V36.6h-3.4v10.8H3.3V36.6H0v28.1h3.3zm50.2-11.5h-8.9L49 42.9l4.5 10.3zM36.3 64.7h3.6l3.6-8.6h11l3.6 8.6h3.6L49 35.5 36.3 64.7zm43.4 0V51.3h.5l10.2 13.4h4.2L83.9 51.3h.6c2.5 0 4.4-.6 5.6-1.8 1.3-1.2 1.9-2.9 1.9-5.2 0-1.3-.2-2.5-.7-3.6-.5-1.1-1.1-2-1.9-2.6-.7-.5-1.4-.9-2.3-1.1-.9-.2-2.3-.3-4.1-.3h-6.6v28.1h3.3v-.1zm2.6-25.3c2.6 0 4.3.4 5.2 1.1.9.7 1.4 2 1.4 3.8 0 1.7-.4 2.8-1.3 3.5-.9.7-2.6 1-5.2 1h-2.5v-9.4h2.4zm30.2 25.3V51.3h.5l10.2 13.4h4.2l-10.7-13.4h.6c2.5 0 4.4-.6 5.6-1.8 1.3-1.2 1.9-2.9 1.9-5.2 0-1.3-.2-2.5-.7-3.6-.5-1.1-1.1-2-1.9-2.6-.7-.5-1.4-.9-2.3-1.1-.9-.2-2.3-.3-4.1-.3h-6.6v28.1h3.3v-.1zm2.5-25.3c2.6 0 4.3.4 5.2 1.1.9.7 1.4 2 1.4 3.8 0 1.7-.4 2.8-1.3 3.5-.9.7-2.6 1-5.2 1h-2.6v-9.4h2.5zm30.4-2.8h-3.3v28.1h3.3V36.6zm24.8 10.7c-1.3-.6-2.2-1.2-2.9-1.9-.6-.7-.9-1.6-.9-2.6 0-1.2.4-2.2 1.2-2.9.8-.8 1.8-1.2 3.1-1.2 1 0 1.9.3 2.6.8.8.5 1.5 1.3 2.1 2.4l2.8-1.8c-.7-1.4-1.7-2.4-2.9-3.2-1.2-.7-2.7-1.1-4.4-1.1-2.3 0-4.2.7-5.7 2s-2.2 3-2.2 4.9c0 1.7.5 3.2 1.4 4.4.9 1.2 2.3 2.2 4.2 3l3.4 1.5c1.5.6 2.5 1.4 3.3 2.3.7.9 1.1 2 1.1 3.3 0 1.5-.5 2.8-1.6 3.8-1 1-2.4 1.4-4.1 1.4-1.4 0-2.6-.4-3.5-1.3-.9-.9-1.6-2.2-2-3.9l-3 1.5c.5 2.1 1.5 3.7 3 4.8 1.5 1.1 3.3 1.7 5.6 1.7 2.7 0 4.9-.8 6.5-2.4 1.6-1.6 2.5-3.7 2.5-6.2 0-1.8-.5-3.3-1.4-4.6-.9-1.3-2.3-2.3-4.1-3.1l-4.1-1.6z"/>
    <path class="st1" d="M114.4 11.4h66V8.1h-66v3.3z"/>
</svg>